HIERARCHY
ROOT RootJoint
{
    OFFSET   0.000000   0.000000   0.000000
    CHANNELS 6 Xposition Yposition Zposition Xrotation Yrotation Zrotation
    JOINT pelvis_lowerback
    {
        OFFSET   0.000000   0.093605   0.000000
        CHANNELS 3 Xrotation Yrotation Zrotation
        JOINT lowerback_torso
        {
            OFFSET   0.000000   0.100000   0.000000
            CHANNELS 3 Xrotation Yrotation Zrotation
            JOINT torso_head
            {
                OFFSET   0.000000   0.282350   0.000000
                CHANNELS 3 Xrotation Yrotation Zrotation
                End Site
                {
                    OFFSET   0.000000   0.192650   0.000000
                }
            }
            JOINT rTorso_Clavicle
            {
                OFFSET  -0.001000   0.157500   0.000000
                CHANNELS 3 Xrotation Yrotation Zrotation
                JOINT rShoulder
                {
                    OFFSET  -0.117647   0.000000   0.000000
                    CHANNELS 3 Xrotation Yrotation Zrotation
                    JOINT rElbow
                    {
                        OFFSET  -0.245000   0.000000   0.000000
                        CHANNELS 3 Xrotation Yrotation Zrotation
                        JOINT rWrist
                        {
                            OFFSET  -0.240000   0.000000   0.000000
                            CHANNELS 3 Xrotation Yrotation Zrotation
                            End Site
                            {
                                OFFSET  -0.116353  -0.002500   0.000000
                            }
                        }
                    }
                }
            }
            JOINT lTorso_Clavicle
            {
                OFFSET   0.001000   0.157500   0.000000
                CHANNELS 3 Xrotation Yrotation Zrotation
                JOINT lShoulder
                {
                    OFFSET   0.117647   0.000000   0.000000
                    CHANNELS 3 Xrotation Yrotation Zrotation
                    JOINT lElbow
                    {
                        OFFSET   0.245000   0.000000   0.000000
                        CHANNELS 3 Xrotation Yrotation Zrotation
                        JOINT lWrist
                        {
                            OFFSET   0.240000   0.000000   0.000000
                            CHANNELS 3 Xrotation Yrotation Zrotation
                            End Site
                            {
                                OFFSET   0.116353  -0.002500   0.000000
                            }
                        }
                    }
                }
            }
        }
    }
    JOINT rHip
    {
        OFFSET  -0.100000  -0.051395   0.000000
        CHANNELS 3 Xrotation Yrotation Zrotation
        JOINT rKnee
        {
            OFFSET   0.000000  -0.410000   0.000000
            CHANNELS 3 Xrotation Yrotation Zrotation
            JOINT rAnkle
            {
                OFFSET   0.000000  -0.390000   0.000000
                CHANNELS 3 Xrotation Yrotation Zrotation
                JOINT rToeJoint
                {
                    OFFSET   0.000000  -0.050000   0.130000
                    CHANNELS 3 Xrotation Yrotation Zrotation
                    End Site
                    {
                        OFFSET  -0.010000   0.002000   0.060000
                    }
                }
            }
        }
    }
    JOINT lHip
    {
        OFFSET   0.100000  -0.051395   0.000000
        CHANNELS 3 Xrotation Yrotation Zrotation
        JOINT lKnee
        {
            OFFSET   0.000000  -0.410000   0.000000
            CHANNELS 3 Xrotation Yrotation Zrotation
            JOINT lAnkle
            {
                OFFSET   0.000000  -0.390000   0.000000
                CHANNELS 3 Xrotation Yrotation Zrotation
                JOINT lToeJoint
                {
                    OFFSET   0.000000  -0.050000   0.130000
                    CHANNELS 3 Xrotation Yrotation Zrotation
                    End Site
                    {
                        OFFSET   0.010000   0.002000   0.060000
                    }
                }
            }
        }
    }
}
MOTION
Frames: 12
Frame Time:   0.008333
 -2.376719   0.925631   3.975860   0.000000   0.000000   0.000000   0.000000   0.000000   0.000000   0.000000   0.000000   0.000000   0.000000   0.000000   0.000000   0.000000   0.000000   0.000000   0.000000   0.000000   0.000000   0.000000   0.000000   0.000000   0.000000   0.000000   0.000000   0.000000   0.000000   0.000000   0.000000   0.000000   0.000000   0.000000   0.000000   0.000000   0.000000   0.000000   0.000000   0.000000   0.000000   0.000000   0.000000   0.000000   0.000000   0.000000   0.000000   0.000000   0.000000   0.000000   0.000000   0.000000   0.000000   0.000000   0.000000   0.000000   0.000000   0.000000   0.000000   0.000000   0.000000   0.000000   0.000000
 -2.377515   0.925954   3.975122   1.587289   0.034945  -0.407182  -1.752905  -0.007599   0.167043  -0.085565  -0.204908   0.235967   0.011187   0.074630   0.067044   0.196775  -0.552683  -0.060684   0.450853   0.389431   2.325078   0.006880   0.347601  -0.001202   0.168304   0.129251  -2.497958   0.502534   0.548939  -0.053067   1.435201  -0.110733  -2.105985  -0.001786   0.094521  -0.001385   0.257036  -0.407955   2.103743  -2.063032  -0.174958   0.590734   0.673273  -0.001095  -0.000726  -0.447408  -0.416344  -0.387139   0.145848   0.000255  -0.000691  -2.304065   0.312184   0.559140   1.620400  -0.002068   0.005183  -1.839046   0.464398  -0.402992   0.258305   0.000567   0.001854
 -2.378601   0.926565   3.974710   3.140601  -0.018043  -0.859572  -3.426455  -0.014431   0.305168  -0.246029  -0.404676   0.496853   0.000841   0.142846   0.140631   0.383536  -1.173266   0.541794   0.881426   0.719362   5.173796   0.014873   0.661495  -0.001774   0.358803   0.303654  -4.279856   0.992938   1.178708  -0.712150   2.861691  -0.167054  -4.700620  -0.005158   0.223469  -0.002912   0.565446  -0.657934   3.525451  -4.059271  -0.368939   1.281903   1.279960  -0.002171  -0.001597  -0.873001  -0.805011  -0.750924   0.240056   0.000300  -0.001038  -4.486037   0.608053   1.214873   3.229382  -0.004108   0.008476  -3.558433   0.921246  -0.760186   0.425858   0.000707   0.002565
 -2.379781   0.927116   3.974597   4.610519  -0.141201  -1.284860  -5.015459  -0.025358   0.406862  -0.419577  -0.593917   0.733847  -0.009329   0.205894   0.206100   0.569786  -1.819303   1.558340   1.293326   1.008427   8.357309   0.021752   0.934068  -0.001886   0.539104   0.388739  -5.314415   1.465446   1.828697  -1.758544   4.273264  -0.229403  -7.617122  -0.009281   0.368851  -0.004276   0.856930  -0.766804   4.249899  -5.936372  -0.574043   1.969356   1.835595  -0.003030  -0.002442  -1.274730  -1.164467  -1.092316   0.312119   0.000287  -0.001217  -6.481521   0.861974   1.865920   4.754948  -0.005665   0.009910  -5.160453   1.358231  -1.078870   0.576496   0.000737   0.002887
 -2.380982   0.927358   3.974701   5.996038  -0.319020  -1.668919  -6.522835  -0.043020   0.480058  -0.598066  -0.776873   0.940650  -0.016863   0.264593   0.263695   0.763069  -2.470569   2.812648   1.690156   1.274892  11.762618   0.026942   1.172475  -0.001713   0.703509   0.386126  -5.809348   1.924878   2.470775  -3.037399   5.671734  -0.332729 -10.755291  -0.013351   0.518425  -0.005363   1.129410  -0.795757   4.462881  -7.700139  -0.787286   2.628460   2.350111  -0.003659  -0.003197  -1.652728  -1.497453  -1.412973   0.370599   0.000252  -0.001295  -8.305395   1.078232   2.488853   6.195780  -0.006770   0.010085  -6.654091   1.774043  -1.363808   0.710038   0.000705   0.002940
 -2.382171   0.927106   3.974957   7.299668  -0.543249  -2.009904  -7.950722  -0.068205   0.531126  -0.778754  -0.956034   1.119311  -0.022226   0.319371   0.315411   0.966765  -3.113563   4.188855   2.073716   1.531265  15.313718   0.030441   1.382772  -0.001377   0.852492   0.316567  -5.945824   2.372807   3.088791  -4.442645   7.055670  -0.497704 -14.044035  -0.016864   0.665215  -0.006166   1.385999  -0.787170   4.329803  -9.358385  -1.005778   3.253276   2.827632  -0.004082  -0.003846  -2.007892  -1.806132  -1.714154   0.419367   0.000213  -0.001309  -9.974487   1.262653   3.078542   7.555022  -0.007523   0.009418  -8.046961   2.168651  -1.618812   0.828504   0.000642   0.002824
 -2.383331   0.926226   3.975309   8.524451  -0.810257  -2.308450  -9.301248  -0.100716   0.564359  -0.959484  -1.132458   1.272913  -0.026116   0.370553   0.362645   1.181689  -3.738899   5.611565   2.444541   1.786404  18.959881   0.032468   1.569658  -0.000964   0.988342   0.198664  -5.854142   2.808817   3.673402  -5.902361   8.421576  -0.736660 -17.433123  -0.019584   0.805322  -0.006722   1.629642  -0.766693   3.973453 -10.918382  -1.227051   3.842878   3.270818  -0.004331  -0.004393  -2.341324  -2.092390  -1.996962   0.460693   0.000175  -0.001282 -11.503556   1.420281   3.634590   8.836199  -0.008017   0.008184  -9.346024   2.542374  -1.847170   0.934043   0.000563   0.002605
 -2.384515   0.924061   3.976035   9.126153  -1.014211  -2.705619  -9.989705  -0.081907   0.753818  -1.087423  -1.270818   1.372481  -0.088731   0.375123   0.353297   1.221648  -4.174669   6.241074   2.736947   1.740013  22.908178   0.030002   1.672572  -0.000543   1.063690  -0.008596  -4.909915   2.959990   4.260489  -6.568450   9.371324  -1.350613 -21.132954  -0.019983   0.914399  -0.006256   1.777037  -0.727311   2.780309 -11.692921  -1.483496   4.551161   3.877982  -0.005093  -0.005161  -2.932342  -2.436243  -2.308863   0.543095   0.000149  -0.001517 -12.201480   1.795995   4.286214   9.411796  -0.007173   0.008230 -10.704647   2.910096  -1.997678   1.054205   0.000441   0.002740
 -2.385565   0.923875   3.977070   9.627647  -1.058425  -2.644515 -10.659599  -0.081121   0.557659  -1.199666  -1.421440   1.306521  -0.131283   0.381673   0.331604   1.273874  -4.591495   6.923784   3.016286   1.698995  26.627881   0.027118   1.756862  -0.000196   1.124451  -0.299566  -3.934685   3.088159   4.777345  -7.214487  10.203645  -2.005595 -24.549876  -0.019213   1.000212  -0.005586   1.910703  -0.761695   1.626978 -12.256525  -1.718637   4.817320   4.519503  -0.005989  -0.005402  -3.477104  -2.758908  -2.605490   0.668830   0.000087  -0.001847 -13.107617   2.191112   4.399551  10.340655  -0.006228   0.010034 -11.565736   3.287596  -2.231781   1.203007   0.000503   0.003169
 -2.386764   0.923898   3.978375  10.065005  -1.177668  -2.704530 -11.318349  -0.052351   0.537558  -1.316294  -1.544120   1.255957  -0.174917   0.389660   0.301367   1.327804  -4.978600   7.431926   3.279305   1.674464  30.042773   0.024303   1.835191   0.000100   1.185401  -0.590294  -2.980820   3.212101   5.265798  -7.765971  10.941076  -2.661343 -27.732156  -0.017935   1.075014  -0.004896   2.039807  -0.850115   0.466092 -12.679161  -1.930844   5.291842   5.169682  -0.007168  -0.005738  -3.986885  -3.055708  -2.884239   0.774565  -0.000037  -0.002008 -13.853440   2.560667   4.653924  11.149718  -0.005494   0.010475 -12.546453   3.632092  -2.404138   1.318760   0.000465   0.003174
 -2.388063   0.923931   3.979765  10.489532  -1.318991  -2.792906 -11.970423  -0.021283   0.557603  -1.451601  -1.651417   1.226430  -0.223891   0.397106   0.280007   1.380574  -5.335698   7.819770   3.524733   1.666123  33.174292   0.021664   1.909151   0.000335   1.247649  -0.864356  -2.149707   3.333102   5.725485  -8.225351  11.596839  -3.303973 -30.664825  -0.016523   1.145021  -0.004267   2.160955  -0.947499  -0.607732 -13.030536  -2.132709   5.840637   5.801661  -0.008278  -0.005964  -4.463915  -3.329444  -3.145971   0.865522  -0.000162  -0.002046 -14.528177   2.892804   4.943307  11.858898  -0.004888   0.010197 -13.504992   3.951563  -2.547024   1.414072   0.000402   0.002998
 -2.389423   0.923912   3.981157  10.906190  -1.464120  -2.876630 -12.602047   0.009450   0.586381  -1.597955  -1.747243   1.203274  -0.276753   0.403847   0.263239   1.429387  -5.661096   8.116802   3.751086   1.674434  36.053157   0.019262   1.980162   0.000507   1.310872  -1.115541  -1.441043   3.448683   6.152791  -8.602646  12.179347  -3.930613 -33.363184  -0.015068   1.210648  -0.003710   2.274386  -1.042453  -1.573298 -13.326687  -2.323846   6.409529   6.405490  -0.009175  -0.006028  -4.909997  -3.582376  -3.391986   0.947395  -0.000272  -0.002012 -15.158824   3.195232   5.229298  12.495749  -0.004372   0.009599 -14.419871   4.250037  -2.670839   1.499327   0.000336   0.002766
